<?xml version="1.0" encoding="UTF-8"?> <svg xmlns="http://www.w3.org/2000/svg" viewBox="0 0 499.99 88.03"><defs><style>.cls-1{fill:#036;}</style></defs><g id="Layer_2" data-name="Layer 2"><g id="logo"><path class="cls-1" d="M178.13,88C160,88,143.21,82.6,132,72.53a37.85,37.85,0,0,1-12.55-28.59A38.43,38.43,0,0,1,132,15.45C142.4,6,160.8,0,178.13,0c19.17,0,34.52,4.83,46.25,15.47a38,38,0,0,1,12.38,28.46,39.7,39.7,0,0,1-12.38,28.59C213.46,82.66,196.29,88,178.13,88V76.42c9.62,0,18.53-3.32,24.76-9.51s9.07-13.72,9.07-23c0-8.86-3.11-17.14-9.07-23-6.15-6-15.27-9.46-24.76-9.46s-18.65,3.37-24.8,9.46c-5.93,5.87-9,14.18-9,23a32.2,32.2,0,0,0,9,23c6.15,6.12,15.26,9.51,24.8,9.51ZM45.75,0c-9.69,0-20.7,1.81-30,6C7.07,9.88,0,16.11,0,26.44A21.25,21.25,0,0,0,5.75,41c2.52,2.31,6.56,6.26,17.14,8.57,4.73,1,14.84,2.62,24.91,3.68s19.83,2.05,23.83,3.07c3.18.81,8.53,1.91,8.53,7.91s-5.63,7.8-6.61,8.19S65.81,76,53.67,76A84.54,84.54,0,0,1,30,71.85c-4.53-1.61-9.28-3.75-13.71-9.16A15.81,15.81,0,0,1,13.44,54h-11V84.8H14.66V80.64a1.74,1.74,0,0,1,2.64-1.49,96.5,96.5,0,0,0,17.88,5.78c6.42,1.34,10.56,2.3,18.55,2.3a79.68,79.68,0,0,0,24.87-3.5,43.42,43.42,0,0,0,14.77-7.3,20.22,20.22,0,0,0,7.91-16.21,22.68,22.68,0,0,0-6.39-15.94A27.89,27.89,0,0,0,87,38.9a59,59,0,0,0-9.72-3.4C71,34,56.71,32.05,49.9,31.33c-7.14-.75-19.53-1.77-24.48-3.31-1.5-.46-4.55-1.92-4.55-5.47,0-2.53,1.4-4.67,4.16-6.4,4.39-2.75,13.25-4.46,22.49-4.46a65.14,65.14,0,0,1,26,5.09,28.46,28.46,0,0,1,6.2,3.7A18.59,18.59,0,0,1,85.88,30.7h9.87V3.88h-11V7c0,1-1,2.32-3,1.23C76.79,5.65,62.84.06,45.75,0ZM248.8,4.91v9.78h8.56c6.19,0,6.6,3.48,6.6,6.44V66.91c0,2.73.16,6.49-3.79,6.49H249.62v9.77h45.14V73.4h-11c-4.39,0-4.59-2-4.65-6.27V27.91L341,83.17h15.74l-.83-62.41c.06-4.56.36-6.07,5.08-6.07h9.86V4.92h-46v9.77H335c4.63,0,5.42,1.79,5.48,6.07L341,53.42,287.23,4.91Zm165,68.47v9.77h53.62V73.38h-10.1a21.34,21.34,0,0,1-2.69-.17,3.35,3.35,0,0,1-2.12-1.88,10.94,10.94,0,0,1-.21-2.11V53.78a2.07,2.07,0,0,1,.36-1.45l29.74-33.94c2.69-3.05,4.15-3.71,7.73-3.71H500V4.9H455.81v9.78h6.67a1.88,1.88,0,0,1,1.6,3c-.14.17-18.51,21.75-18.73,22s-.37.16-.54-.07S426.5,17.69,426.5,17.69c-1.28-1.58-.28-3,1.22-3h6.5V4.92h-53.9V14.7h9.55c4.17,0,6.91,2.63,8.47,4.33,1.26,1.37,28.72,32.49,29.41,33.4s.66,1,.66,1.36c0,.52,0,15.44,0,15.44a10.94,10.94,0,0,1-.21,2.11,3.35,3.35,0,0,1-2.12,1.88,21.82,21.82,0,0,1-2.72.17Z"></path></g></g></svg> 